<svg width="52" height="52" viewBox="0 0 52 52" fill="none" xmlns="http://www.w3.org/2000/svg">
<path d="M26.0007 21.6654C30.7871 21.6654 34.6673 17.7852 34.6673 12.9987C34.6673 8.21223 30.7871 4.33203 26.0007 4.33203C21.2142 4.33203 17.334 8.21223 17.334 12.9987C17.334 17.7852 21.2142 21.6654 26.0007 21.6654Z" stroke="black" stroke-width="1.5"/>
<path d="M43.3272 38.9974C43.3337 38.6421 43.3337 38.2802 43.3337 37.9141C43.3337 32.5299 35.5727 28.1641 26.0003 28.1641C16.428 28.1641 8.66699 32.5299 8.66699 37.9141C8.66699 43.2982 8.66699 47.6641 26.0003 47.6641C30.8342 47.6641 34.3203 47.3239 36.8337 46.7172" stroke="black" stroke-width="1.5" stroke-linecap="round"/>
</svg>
