<svg width="137" height="137" viewBox="0 0 137 137" fill="none" xmlns="http://www.w3.org/2000/svg">
<rect width="137" height="136.471" rx="68.2355" fill="#FFFAEB"/>
<path d="M72.58 71.67H73.98C75.4733 71.67 76.5933 71.6233 77.34 71.53C76.4533 70.69 75.4967 70.0367 74.47 69.57L72.58 71.67ZM72.86 69.01C72.02 68.7767 71.2967 68.66 70.69 68.66C70.13 68.66 69.64 68.8233 69.22 69.15C68.8 69.43 68.59 69.7333 68.59 70.06C68.59 70.7133 69.2667 71.1567 70.62 71.39L72.86 69.01ZM71.11 48.22C69.7567 48.5467 68.5667 49.2233 67.54 50.25C66.56 51.23 66.07 51.9533 66.07 52.42C66.07 52.8867 66.21 53.12 66.49 53.12C67.6567 53.12 68.66 52.6533 69.5 51.72C70.34 50.7867 70.8767 49.62 71.11 48.22ZM38.98 78.53C38.98 79.0433 39.3767 79.3 40.17 79.3C41.01 79.3 41.78 78.7633 42.48 77.69C43.2267 76.57 43.6 75.3333 43.6 73.98C43.6 73.6067 43.5767 73.3267 43.53 73.14C40.4967 75.38 38.98 77.1767 38.98 78.53ZM72.72 48.01L72.23 48.08C71.9033 50.04 71.1333 51.6733 69.92 52.98C68.7067 54.2867 67.2133 54.94 65.44 54.94C64.6933 54.94 64.32 54.52 64.32 53.68C64.32 52.7933 64.9967 51.6267 66.35 50.18C67.75 48.6867 69.3833 47.7067 71.25 47.24V46.89C71.25 45.8167 70.8767 44.6733 70.13 43.46C66.0233 45.1867 62.7567 47.4733 60.33 50.32C57.9033 53.12 56.69 55.6633 56.69 57.95C56.69 60.5167 58.16 61.8 61.1 61.8C64.0867 61.8 67.26 60.3767 70.62 57.53C74.0267 54.6367 75.73 52.1633 75.73 50.11C75.73 48.71 74.7267 48.01 72.72 48.01ZM90.22 66.98C93.58 64.7867 96.17 62.3133 97.99 59.56C99.81 56.8067 100.72 54.1 100.72 51.44C100.72 48.7333 99.6233 46.4467 97.43 44.58C95.1433 46.4467 92.8567 48.5933 90.57 51.02C88.33 53.4 85.4833 56.6433 82.03 60.75C78.5767 64.8567 76.29 67.54 75.17 68.8C76.6167 69.36 77.9467 70.1767 79.16 71.25C83.1733 70.55 86.86 69.1267 90.22 66.98ZM112.76 36.18C113.18 36.18 113.437 36.3433 113.53 36.67C113.53 37.09 113.087 37.37 112.2 37.51C107.673 38.1167 103.24 40.0767 98.9 43.39C101.467 45.35 102.75 47.94 102.75 51.16C102.75 55.4533 100.58 59.6767 96.24 63.83C91.9467 67.9367 86.4867 70.6433 79.86 71.95C81.0733 73.1167 82.3567 74.7033 83.71 76.71C85.11 78.67 86.37 80.5133 87.49 82.24C88.6567 83.92 89.94 85.5767 91.34 87.21C94.42 90.71 98.2467 92.46 102.82 92.46C104.313 92.46 105.48 92.2967 106.32 91.97C107.207 91.6433 107.907 91.3633 108.42 91.13C109.633 90.57 110.357 90.29 110.59 90.29C110.87 90.29 111.01 90.3833 111.01 90.57C111.01 90.8967 110.59 91.2933 109.75 91.76C108.91 92.2733 108.117 92.6467 107.37 92.88C104.663 93.6267 102.75 94 101.63 94C97.01 94 93.0667 92.0867 89.8 88.26C88.3067 86.5333 86.9767 84.7833 85.81 83.01C84.6433 81.19 83.36 79.23 81.96 77.13C80.6067 75.03 79.3467 73.3967 78.18 72.23C76.36 72.51 74.47 72.65 72.51 72.65H71.67C66.3967 78.2967 61.1233 82.7067 55.85 85.88C50.5767 89.0067 44.8133 90.57 38.56 90.57C33.8 90.57 30.2067 89.59 27.78 87.63C25.4 85.7167 24.21 83.2667 24.21 80.28C24.21 77.2467 25.54 74.47 28.2 71.95C30.86 69.3833 34.1967 68.1 38.21 68.1C41.43 68.1 43.46 69.22 44.3 71.46C48.7333 68.7067 53.3767 67.33 58.23 67.33C58.8367 67.47 59.14 67.7033 59.14 68.03C59.14 68.17 59.0233 68.24 58.79 68.24C53.7033 68.24 48.9667 69.64 44.58 72.44C44.6267 72.6267 44.65 72.9533 44.65 73.42C44.65 75.1 44.1367 76.71 43.11 78.25C42.0833 79.7433 40.8933 80.49 39.54 80.49C38.1867 80.49 37.51 79.9767 37.51 78.95C37.51 78.0633 38.0233 76.99 39.05 75.73C40.1233 74.47 41.5233 73.2567 43.25 72.09C42.41 69.99 40.4733 68.94 37.44 68.94C34.4533 68.94 31.91 70.1067 29.81 72.44C27.71 74.7267 26.66 77.2467 26.66 80C26.66 82.7533 27.71 85.04 29.81 86.86C31.9567 88.6333 35.4333 89.52 40.24 89.52C45.0933 89.52 49.9467 88.0267 54.8 85.04C59.6533 82.0067 64.6233 77.8067 69.71 72.44C67.4233 71.9267 66.28 71.0867 66.28 69.92C66.28 69.36 66.6533 68.8933 67.4 68.52C68.1933 68.1 69.1733 67.89 70.34 67.89C71.5067 67.89 72.5567 68.0067 73.49 68.24C74.5633 67.0267 76.8733 64.3667 80.42 60.26C83.9667 56.1067 86.9067 52.8167 89.24 50.39C91.5733 47.9167 93.93 45.7233 96.31 43.81C93.37 41.85 89.4267 40.87 84.48 40.87C79.58 40.87 75.1933 41.57 71.32 42.97C72.02 44.09 72.37 45 72.37 45.7C72.37 46.4 72.3467 46.8433 72.3 47.03C72.4867 46.9833 72.79 46.96 73.21 46.96C76.1967 46.96 77.69 47.87 77.69 49.69C77.69 51.1833 76.7567 52.98 74.89 55.08C73.0233 57.18 70.7133 59.0233 67.96 60.61C65.2067 62.1967 62.8267 62.99 60.82 62.99C58.8133 62.99 57.3433 62.57 56.41 61.73C55.4767 60.89 55.01 59.77 55.01 58.37C55.01 55.8967 56.3167 53.1433 58.93 50.11C61.59 47.03 65.1367 44.5567 69.57 42.69C67.2833 40.0767 63.76 38.77 59 38.77C55.78 38.77 52.7467 39.2833 49.9 40.31C47.1 41.29 44.8133 42.5033 43.04 43.95C39.4467 46.9367 37.02 49.62 35.76 52L34.92 53.54C34.6867 53.9133 34.43 54.1 34.15 54.1C33.87 54.1 33.73 53.8433 33.73 53.33C34.3833 51.8367 35.5033 50.11 37.09 48.15C38.6767 46.19 40.3567 44.5333 42.13 43.18C43.9033 41.8267 46.33 40.59 49.41 39.47C52.5367 38.35 55.8967 37.79 59.49 37.79C64.5767 37.79 68.3333 39.26 70.76 42.2C75.1933 40.5667 80.0233 39.75 85.25 39.75C90.5233 39.75 94.7 40.73 97.78 42.69C102.96 38.77 107.953 36.6 112.76 36.18Z" fill="#FF4197"/>
<rect x="97" y="30" width="23" height="16" fill="#FFFAEB"/>
<g filter="url(#filter0_d_123_108)">
<path d="M96.9929 41.3795C97.8116 40.5568 98.9989 40.207 100.139 40.4526L100.63 40.5585C101.494 40.7448 102.266 41.2346 102.8 41.9327C103.41 42.729 103.666 43.7421 103.504 44.7282C103.363 45.5862 102.917 46.3661 102.247 46.9276L37.3721 101.296L96.9929 41.3795Z" fill="#B1B1B1"/>
</g>
<ellipse cx="97.76" cy="45.8387" rx="1.58687" ry="4.04914" transform="rotate(43.4774 97.76 45.8387)" fill="#FFFAEB"/>
<path d="M97.5 43.5C101 45.5 101.5 49 101.5 49" stroke="url(#paint0_linear_123_108)" stroke-width="2"/>
<path d="M96.5 43.5C97.1667 43 99.1 41.5001 99.5 41.5" stroke="#B1B1B1" stroke-width="2"/>
<path opacity="0.75" d="M91.6944 48.6874C94.6036 45.5906 97.7774 42.3401 97.7774 42.3401C101.041 40.8696 102.009 41.0176 102.009 41.0176C99.6287 39.9596 98.3063 40.2242 96.7195 41.811C94.3391 43.9269 92.1334 46.2808 89.314 49.2165C84.9978 53.7179 46.7452 91.5331 37.7529 101.054C47.5386 91.5331 87.4257 53.2311 91.6944 48.6874Z" fill="#D8D8D9"/>
<path d="M67.5 71C68 71.5 72.5 72.5 73 72" stroke="url(#paint1_linear_123_108)"/>
<defs>
<filter id="filter0_d_123_108" x="33.3721" y="40.375" width="74.1797" height="68.9219" filterUnits="userSpaceOnUse" color-interpolation-filters="sRGB">
<feFlood flood-opacity="0" result="BackgroundImageFix"/>
<feColorMatrix in="SourceAlpha" type="matrix" values="0 0 0 0 0 0 0 0 0 0 0 0 0 0 0 0 0 0 127 0" result="hardAlpha"/>
<feOffset dy="4"/>
<feGaussianBlur stdDeviation="2"/>
<feComposite in2="hardAlpha" operator="out"/>
<feColorMatrix type="matrix" values="0 0 0 0 0 0 0 0 0 0 0 0 0 0 0 0 0 0 0.25 0"/>
<feBlend mode="normal" in2="BackgroundImageFix" result="effect1_dropShadow_123_108"/>
<feBlend mode="normal" in="SourceGraphic" in2="effect1_dropShadow_123_108" result="shape"/>
</filter>
<linearGradient id="paint0_linear_123_108" x1="98" y1="44.2645" x2="101.174" y2="48.4961" gradientUnits="userSpaceOnUse">
<stop stop-color="#FF4197"/>
<stop offset="1" stop-color="#D7377F"/>
</linearGradient>
<linearGradient id="paint1_linear_123_108" x1="68.029" y1="71.2909" x2="68.0587" y2="71.9508" gradientUnits="userSpaceOnUse">
<stop stop-color="#FF4197"/>
<stop offset="1" stop-color="#CF357B"/>
</linearGradient>
</defs>
</svg>
