<svg width="69" height="69" viewBox="0 0 69 69" fill="none" xmlns="http://www.w3.org/2000/svg">
<path d="M52.8281 0H16.1719C7.2404 0 0 7.2404 0 16.1719V52.8281C0 61.7596 7.2404 69 16.1719 69H52.8281C61.7596 69 69 61.7596 69 52.8281V16.1719C69 7.2404 61.7596 0 52.8281 0Z" fill="white"/>
<path d="M52.8281 0H16.1719C7.2404 0 0 7.2404 0 16.1719V52.8281C0 61.7596 7.2404 69 16.1719 69H52.8281C61.7596 69 69 61.7596 69 52.8281V16.1719C69 7.2404 61.7596 0 52.8281 0Z" fill="#0A66C2"/>
<path d="M49.7865 58.6729H57.6756C57.9615 58.6729 58.2357 58.5594 58.4379 58.3572C58.6401 58.1551 58.7537 57.8809 58.7538 57.5951L58.7578 40.9267C58.7578 32.2146 56.8805 25.5181 46.6995 25.5181C42.8293 25.3742 39.1796 27.3693 37.2101 30.7007C37.2005 30.7169 37.1859 30.7295 37.1684 30.7365C37.1509 30.7436 37.1317 30.7448 37.1135 30.7398C37.0953 30.7349 37.0792 30.7242 37.0677 30.7093C37.0562 30.6944 37.0499 30.6761 37.0498 30.6573V27.4005C37.0498 27.1146 36.9362 26.8404 36.734 26.6382C36.5318 26.436 36.2576 26.3224 35.9716 26.3224H28.4849C28.1989 26.3224 27.9247 26.436 27.7225 26.6382C27.5203 26.8404 27.4067 27.1146 27.4067 27.4005V57.5934C27.4067 57.8794 27.5203 58.1536 27.7225 58.3558C27.9247 58.558 28.1989 58.6716 28.4849 58.6716H36.3735C36.6594 58.6716 36.9337 58.558 37.1359 58.3558C37.3381 58.1536 37.4516 57.8794 37.4516 57.5934V42.6687C37.4516 38.4486 38.2521 34.3617 43.484 34.3617C48.6415 34.3617 48.7083 39.1907 48.7083 42.942V57.5948C48.7083 57.8807 48.8219 58.1549 49.0241 58.3571C49.2263 58.5593 49.5005 58.6729 49.7865 58.6729ZM10.2422 16.0713C10.2422 19.2693 12.8747 21.9005 16.0727 21.9005C19.2699 21.9002 21.9008 19.2674 21.9008 16.0703C21.9002 12.8731 19.2691 10.2422 16.0716 10.2422C12.8734 10.2422 10.2422 12.8736 10.2422 16.0713ZM12.1179 58.6729H20.017C20.3029 58.6729 20.5772 58.5593 20.7794 58.3571C20.9815 58.1549 21.0951 57.8807 21.0951 57.5948V27.4005C21.0951 27.1146 20.9815 26.8404 20.7794 26.6382C20.5772 26.436 20.3029 26.3224 20.017 26.3224H12.1179C11.8319 26.3224 11.5577 26.436 11.3555 26.6382C11.1533 26.8404 11.0397 27.1146 11.0397 27.4005V57.5948C11.0397 57.8807 11.1533 58.1549 11.3555 58.3571C11.5577 58.5593 11.8319 58.6729 12.1179 58.6729Z" fill="white"/>
</svg>
